<svg width="94" height="18" viewBox="0 0 94 18" fill="none" xmlns="http://www.w3.org/2000/svg">
<path d="M13.2465 17.0029C12.849 17.0029 12.339 16.8754 11.7015 16.5004L9.45893 15.1729C9.22643 15.0379 8.77642 15.0379 8.55142 15.1729L6.3014 16.5004C4.97388 17.2879 4.19387 16.9729 3.84137 16.7179C3.49637 16.4629 2.95636 15.8104 3.30886 14.3104L3.84137 12.0078C3.90137 11.7678 3.78137 11.3553 3.60137 11.1753L1.74135 9.31532C0.811338 8.38531 0.886339 7.5903 1.01384 7.2003C1.14134 6.8103 1.54635 6.12029 2.83636 5.90279L5.22888 5.50528C5.45389 5.46778 5.77639 5.22778 5.87389 5.02528L7.20141 2.37775C7.80141 1.17024 8.58892 0.990234 9.00142 0.990234C9.41393 0.990234 10.2014 1.17024 10.8014 2.37775L12.1215 5.01778C12.2265 5.22028 12.549 5.46028 12.774 5.49778L15.1665 5.89529C16.464 6.11279 16.869 6.8028 16.989 7.1928C17.109 7.5828 17.184 8.37781 16.2615 9.30782L14.4015 11.1753C14.2215 11.3553 14.109 11.7603 14.1615 12.0078L14.694 14.3104C15.039 15.8104 14.5065 16.4629 14.1615 16.7179C13.974 16.8529 13.674 17.0029 13.2465 17.0029Z" fill="#FFB127"/>
<path d="M32.2465 17.0028C31.849 17.0028 31.339 16.8753 30.7015 16.5003L28.4589 15.1728C28.2264 15.0378 27.7764 15.0378 27.5514 15.1728L25.3014 16.5003C23.9739 17.2878 23.1939 16.9728 22.8414 16.7178C22.4964 16.4628 21.9564 15.8103 22.3089 14.3103L22.8414 12.0077C22.9014 11.7677 22.7814 11.3552 22.6014 11.1752L20.7413 9.3152C19.8113 8.38519 19.8863 7.59018 20.0138 7.20018C20.1413 6.81017 20.5463 6.12017 21.8364 5.90266L24.2289 5.50516C24.4539 5.46766 24.7764 5.22766 24.8739 5.02515L26.2014 2.37763C26.8014 1.17011 27.5889 0.990112 28.0014 0.990112C28.4139 0.990112 29.2014 1.17011 29.8014 2.37763L31.1215 5.01765C31.2265 5.22016 31.549 5.46016 31.774 5.49766L34.1665 5.89516C35.464 6.11267 35.869 6.80267 35.989 7.19268C36.109 7.58268 36.184 8.37769 35.2615 9.3077L33.4015 11.1752C33.2215 11.3552 33.109 11.7602 33.1615 12.0077L33.694 14.3103C34.039 15.8103 33.5065 16.4628 33.1615 16.7178C32.974 16.8528 32.674 17.0028 32.2465 17.0028Z" fill="#FFB127"/>
<path d="M51.2465 17.0028C50.849 17.0028 50.339 16.8753 49.7015 16.5003L47.4589 15.1728C47.2264 15.0378 46.7764 15.0378 46.5514 15.1728L44.3014 16.5003C42.9739 17.2878 42.1939 16.9728 41.8414 16.7178C41.4964 16.4628 40.9564 15.8103 41.3089 14.3103L41.8414 12.0077C41.9014 11.7677 41.7814 11.3552 41.6014 11.1752L39.7413 9.3152C38.8113 8.38519 38.8863 7.59018 39.0138 7.20018C39.1413 6.81017 39.5463 6.12017 40.8364 5.90266L43.2289 5.50516C43.4539 5.46766 43.7764 5.22766 43.8739 5.02515L45.2014 2.37763C45.8014 1.17011 46.5889 0.990112 47.0014 0.990112C47.4139 0.990112 48.2014 1.17011 48.8014 2.37763L50.1215 5.01765C50.2265 5.22016 50.549 5.46016 50.774 5.49766L53.1665 5.89516C54.464 6.11267 54.869 6.80267 54.989 7.19268C55.109 7.58268 55.184 8.37769 54.2615 9.3077L52.4015 11.1752C52.2215 11.3552 52.109 11.7602 52.1615 12.0077L52.694 14.3103C53.039 15.8103 52.5065 16.4628 52.1615 16.7178C51.974 16.8528 51.674 17.0028 51.2465 17.0028Z" fill="#FFB127"/>
<path d="M70.2465 17.0028C69.849 17.0028 69.339 16.8753 68.7015 16.5003L66.4589 15.1728C66.2264 15.0378 65.7764 15.0378 65.5514 15.1728L63.3014 16.5003C61.9739 17.2878 61.1939 16.9728 60.8414 16.7178C60.4964 16.4628 59.9564 15.8103 60.3089 14.3103L60.8414 12.0077C60.9014 11.7677 60.7814 11.3552 60.6014 11.1752L58.7413 9.3152C57.8113 8.38519 57.8863 7.59018 58.0138 7.20018C58.1413 6.81017 58.5463 6.12017 59.8364 5.90266L62.2289 5.50516C62.4539 5.46766 62.7764 5.22766 62.8739 5.02515L64.2014 2.37763C64.8014 1.17011 65.5889 0.990112 66.0014 0.990112C66.4139 0.990112 67.2014 1.17011 67.8014 2.37763L69.1215 5.01765C69.2265 5.22016 69.549 5.46016 69.774 5.49766L72.1665 5.89516C73.464 6.11267 73.869 6.80267 73.989 7.19268C74.109 7.58268 74.184 8.37769 73.2615 9.3077L71.4015 11.1752C71.2215 11.3552 71.109 11.7602 71.1615 12.0077L71.694 14.3103C72.039 15.8103 71.5065 16.4628 71.1615 16.7178C70.974 16.8528 70.674 17.0028 70.2465 17.0028Z" fill="#FFB127"/>
<path d="M89.2465 17.0028C88.849 17.0028 88.339 16.8753 87.7015 16.5003L85.4589 15.1728C85.2264 15.0378 84.7764 15.0378 84.5514 15.1728L82.3014 16.5003C80.9739 17.2878 80.1939 16.9728 79.8414 16.7178C79.4964 16.4628 78.9564 15.8103 79.3089 14.3103L79.8414 12.0077C79.9014 11.7677 79.7814 11.3552 79.6014 11.1752L77.7413 9.3152C76.8113 8.38519 76.8863 7.59018 77.0138 7.20018C77.1413 6.81017 77.5463 6.12017 78.8364 5.90266L81.2289 5.50516C81.4539 5.46766 81.7764 5.22766 81.8739 5.02515L83.2014 2.37763C83.8014 1.17011 84.5889 0.990112 85.0014 0.990112C85.4139 0.990112 86.2014 1.17011 86.8014 2.37763L88.1215 5.01765C88.2265 5.22016 88.549 5.46016 88.774 5.49766L91.1665 5.89516C92.464 6.11267 92.869 6.80267 92.989 7.19268C93.109 7.58268 93.184 8.37769 92.2615 9.3077L90.4015 11.1752C90.2215 11.3552 90.109 11.7602 90.1615 12.0077L90.694 14.3103C91.039 15.8103 90.5065 16.4628 90.1615 16.7178C89.974 16.8528 89.674 17.0028 89.2465 17.0028Z" fill="#E8E3DA" fill-opacity="0.2"/>
</svg>
